<?xml version="1.0" standalone="no"?>
<svg
  width="600"
  height="600"
  viewBox="0 0 600 600"
  xmlns="http://www.w3.org/2000/svg"
>
  <g transform="translate(300,300)">
    <path d="M119.6,-165.9C136.3,-128.5,118.4,-73.1,135.4,-17.8C152.4,37.5,204.4,92.8,203.9,140.5C203.5,188.3,150.7,228.5,95,239.4C39.3,250.3,-19.2,231.8,-72.4,208.3C-125.7,184.9,-173.7,156.4,-182.7,117C-191.8,77.6,-161.9,27.2,-150.5,-24.7C-139.2,-76.5,-146.4,-129.8,-124.4,-166.3C-102.4,-202.7,-51.2,-222.4,0.1,-222.5C51.4,-222.6,102.8,-203.2,119.6,-165.9Z" fill="#222222" />
  </g>
</svg>
  