<?xml version="1.0" standalone="no"?>
<svg
  width="600"
  height="600"
  viewBox="0 0 600 600"
  xmlns="http://www.w3.org/2000/svg"
>
  <g transform="translate(300,300)">
    <path d="M96.3,-148.2C123.3,-113,142.5,-82.8,170,-44.3C197.5,-5.9,233.3,40.8,229.9,81.9C226.5,123,183.8,158.6,138.9,179.4C94,200.1,47,206.1,-4.4,212.1C-55.8,218.2,-111.7,224.4,-158.8,204.3C-205.8,184.3,-244.1,138,-243.3,90.8C-242.5,43.6,-202.6,-4.6,-181.8,-56.1C-160.9,-107.5,-159.2,-162.2,-132.1,-197.4C-105,-232.5,-52.5,-248.3,-8.9,-236C34.7,-223.7,69.4,-183.5,96.3,-148.2Z" fill="#222222" />
  </g>
</svg>
  